<svg aria-hidden="true" style="position:absolute;width:0;height:0" xmlns="http://www.w3.org/2000/svg" overflow="hidden"><defs><symbol id="icon-home" viewBox="0 0 32 32"><path d="M32 18.451L16 6.031 0 18.451v-5.064L16 .967l16 12.42zM28 18v12h-8v-8h-8v8H4V18l12-9z"/></symbol><symbol id="icon-pencil2" viewBox="0 0 32 32"><path d="M12 20l4-2L30 4l-2-2-14 14-2 4zm-2.959 7.097c-.989-2.085-2.052-3.149-4.137-4.137l3.097-8.525 4-2.435 12-12h-6l-12 12-6 20 20-6 12-12V8l-12 12-2.435 4z"/></symbol><symbol id="icon-camera" viewBox="0 0 32 32"><path d="M9.5 19a6.5 6.5 0 1013 0 6.5 6.5 0 00-13 0zM30 8h-7c-.5-2-1-4-3-4h-8c-2 0-2.5 2-3 4H2c-1.1 0-2 .9-2 2v18c0 1.1.9 2 2 2h28c1.1 0 2-.9 2-2V10c0-1.1-.9-2-2-2zM16 27.875c-4.902 0-8.875-3.973-8.875-8.875s3.973-8.875 8.875-8.875 8.875 3.973 8.875 8.875-3.973 8.875-8.875 8.875zM30 14h-4v-2h4v2z"/></symbol><symbol id="icon-profile" viewBox="0 0 32 32"><path d="M27 0H3C1.35 0 0 1.35 0 3v26c0 1.65 1.35 3 3 3h24c1.65 0 3-1.35 3-3V3c0-1.65-1.35-3-3-3zm-1 28H4V4h22v24zM8 18h14v2H8zm0 4h14v2H8zm2-13a3 3 0 116 0 3 3 0 01-6 0zm5 3h-4c-1.65 0-3 .9-3 2v2h10v-2c0-1.1-1.35-2-3-2z"/></symbol><symbol id="icon-git" viewBox="0 0 32 32"><path d="M31.397 14.575L17.425.604a2.061 2.061 0 00-2.915 0L11.264 3.85l2.443 2.443a3 3 0 014 4l3.999 3.999a3 3 0 11-1.414 1.414l-3.999-3.999a2.776 2.776 0 01-.293.121v8.343a3 3 0 11-2 0v-8.343a3 3 0 01-1.707-4.122L9.85 5.263.603 14.509a2.061 2.061 0 000 2.915l13.973 13.971a2.061 2.061 0 002.915 0l13.906-13.906a2.061 2.061 0 000-2.915z"/></symbol></defs></svg>